<svg width="24" height="24" viewBox="0 0 24 24" fill="none" xmlns="http://www.w3.org/2000/svg">
<path d="M15.75 1.5C14.6959 1.49976 13.6565 1.74642 12.7149 2.22023C11.7734 2.69404 10.9559 3.38181 10.328 4.22844C9.7001 5.07506 9.27925 6.057 9.09917 7.09555C8.91909 8.13411 8.98479 9.20041 9.291 10.209L1.5 18V22.5H6L13.791 14.709C14.7194 14.9908 15.6977 15.0692 16.6591 14.9387C17.6206 14.8083 18.5426 14.4721 19.3624 13.953C20.1821 13.434 20.8804 12.7444 21.4095 11.9311C21.9386 11.1178 22.2862 10.2 22.4285 9.24025C22.5709 8.28049 22.5046 7.30132 22.2343 6.36948C21.964 5.43764 21.496 4.57502 20.8622 3.84042C20.2283 3.10582 19.4436 2.51649 18.5614 2.11261C17.6792 1.70872 16.7203 1.49978 15.75 1.5ZM15.75 13.5C15.2336 13.4997 14.7201 13.4234 14.226 13.2735L13.3657 13.0125L12.7305 13.6478L10.3448 16.0335L9.3105 15L8.25 16.0605L9.28425 17.0947L8.09475 18.2843L7.0605 17.25L6 18.3105L7.03425 19.3447L5.379 21H3V18.621L10.3515 11.2695L10.9875 10.6342L10.7265 9.774C10.4059 8.71724 10.4268 7.58631 10.786 6.54207C11.1453 5.49784 11.8247 4.59347 12.7275 3.95762C13.6304 3.32177 14.7108 2.98681 15.815 3.0004C16.9192 3.01398 17.9911 3.37542 18.878 4.03329C19.765 4.69116 20.4219 5.61197 20.7554 6.66473C21.0888 7.71749 21.0818 8.84859 20.7354 9.89714C20.3889 10.9457 19.7206 11.8583 18.8256 12.5051C17.9305 13.152 16.8543 13.5001 15.75 13.5Z" fill="#3B0C9E"/>
<path d="M16.5 9C17.3284 9 18 8.32843 18 7.5C18 6.67157 17.3284 6 16.5 6C15.6716 6 15 6.67157 15 7.5C15 8.32843 15.6716 9 16.5 9Z" fill="#3B0C9E"/>
</svg>
